<svg xmlns="http://www.w3.org/2000/svg" viewBox="0 0 32 32" width="32" height="32"><rect width="32" height="32" fill="#1a1a33"></rect><rect x="0" y="0" width="32" height="2" fill="#3a3aff"></rect><rect x="0" y="30" width="32" height="2" fill="#3a3aff"></rect><rect x="0" y="0" width="2" height="32" fill="#3a3aff"></rect><rect x="30" y="0" width="2" height="32" fill="#3a3aff"></rect><rect x="2" y="2" width="28" height="2" fill="#4444ff"></rect><rect x="2" y="28" width="28" height="2" fill="#4444ff"></rect><rect x="2" y="2" width="2" height="28" fill="#4444ff"></rect><rect x="28" y="2" width="2" height="28" fill="#4444ff"></rect><g fill="#e8e8f0">
    <!-- J top horizontal -->
    <rect x="6" y="8" width="6" height="2"></rect>
    <!-- J vertical -->
    <rect x="10" y="10" width="2" height="8"></rect>
    <!-- J bottom curve -->
    <rect x="8" y="18" width="2" height="2"></rect>
    <rect x="6" y="20" width="2" height="2"></rect>
  </g><g fill="#e8e8f0">
    <!-- E vertical -->
    <rect x="16" y="8" width="2" height="14"></rect>
    <!-- E top horizontal -->
    <rect x="18" y="8" width="6" height="2"></rect>
    <!-- E middle horizontal -->
    <rect x="18" y="14" width="4" height="2"></rect>
    <!-- E bottom horizontal -->
    <rect x="18" y="20" width="6" height="2"></rect>
  </g><g fill="#3a3aff">
    <rect x="25" y="6" width="2" height="2"></rect>
    <rect x="24" y="7" width="4" height="2"></rect>
    <rect x="25" y="9" width="2" height="2"></rect>
  </g></svg>